# xmcd
#
# Track frame offsets: 
#        150
#        15893
#        34979
#        54678
#        74879
#        93283
#        107772
#        133643
#        161381
#        176901
#
# Disc length: 2704 seconds
#
# Revision: 0
# Processed by: cddbd v1.5.2PL0 Copyright (c) Steve Scherf et al.
# Submitted via: ExactAudioCopy v1.0b4
#
DISCID=860a8e0a
DTITLE=Duster Bennett - Bright Lights (LP)
DYEAR=1969
DGENRE=Blues
TTITLE0=God Save The Queen - Introductions - She Lived Her Life Too Fast
TTITLE1=Just Like A Fish
TTITLE2=What A Dream
TTITLE3=Just Like I Treat You
TTITLE4=Talk To Me
TTITLE5=I'm The One
TTITLE6=I Wonder If You Know (How It Is)
TTITLE7=My Babe
TTITLE8=Honest I Do
TTITLE9=Bright Lights (And More Bright Lights)
EXTD=
EXTT0=
EXTT1=
EXTT2=
EXTT3=
EXTT4=
EXTT5=
EXTT6=
EXTT7=
EXTT8=
EXTT9=
PLAYORDER=
